<svg width="100%" height="100%" viewBox="0 0 80 74" fill="none" xmlns="http://www.w3.org/2000/svg">
<path fill-rule="evenodd" clip-rule="evenodd" d="M79.4678 0H7.51019e-06V0.000298483H0V37.0001L7.51019e-06 74H79.4678L39.7339 73.9999L7.51019e-06 74V0.000298483H39.7339H79.4678V0ZM27.6175 9.90735C27.3919 9.75572 25.4591 9.16938 24.429 8.93686C23.6049 8.7549 20.1711 8.6538 19.4255 8.79533C16.7962 9.28058 15.4226 9.75571 13.6861 10.7869C11.4983 12.0909 9.83046 13.7691 8.16262 16.3267C7.66226 17.095 6.08272 20.2895 6.08272 20.5322C6.08272 20.5928 6.02385 20.7849 5.94537 20.9567C5.82764 21.2297 5.58237 21.9475 5.54312 22.1395C5.5235 22.2305 5.28804 23.0898 5.15069 23.5548C4.21866 26.81 3.95377 32.6531 4.61109 35.3826C5.36653 38.5266 6.86759 41.711 8.52562 43.6722C8.82975 44.0361 9.19276 44.4911 9.33011 44.6831C9.94819 45.5424 11.7534 47.1599 13.8333 48.7167C15.1577 49.7074 19.0625 52.3662 19.1998 52.3662C19.2292 52.3662 19.3372 52.4268 19.4156 52.5077C19.5039 52.5886 20.593 53.2659 21.8389 54.014C24.9784 55.9145 26.2244 56.8243 28.8242 59.1495C29.2952 59.5639 30.08 60.2412 30.5608 60.6557C31.7184 61.6262 34.4949 64.5175 35.4269 65.7205C36.5454 67.156 38.223 69.6732 38.7332 70.6639C38.8705 70.9166 39.0079 71.1592 39.0471 71.1997C39.1256 71.2906 40.146 70.0674 41.0289 68.8442C41.5097 68.177 42.6771 66.4281 44.031 64.3658C44.551 63.5672 44.5412 63.5065 43.8152 63.0415C43.1873 62.6371 42.2945 62.6169 41.7844 62.9809C41.3625 63.2942 41.3429 63.3145 40.4697 64.6792C39.2139 66.6202 38.7332 67.0043 38.4585 66.3068C38.2917 65.8923 37.1929 64.2951 36.3982 63.3246C33.5629 59.847 31.5222 57.8353 28.7556 55.8235C26.5776 54.2364 24.6644 52.8918 21.7801 50.9104C18.8294 48.8867 17.7148 48.115 17.0743 47.6716L16.9924 47.6148C15.3147 46.4421 13.1171 44.4911 12.0085 43.187C9.75197 40.5383 8.70221 38.1121 8.43732 34.9884C8.33921 33.755 8.45694 29.4182 8.62373 28.4073C8.67278 28.104 8.74146 27.5985 8.7807 27.2952C8.89843 26.1933 9.49689 23.9086 9.97762 22.7461C11.0862 20.057 11.979 18.6215 13.4605 17.1253C15.6777 14.8912 17.7871 13.6579 20.0141 13.2838C23.909 12.647 26.4304 12.8997 28.9616 14.2139C31.4143 15.4775 33.71 17.4792 36.2707 20.5827C37.4676 22.0182 38.3113 23.4942 38.6939 24.7881C38.7234 24.8892 38.7921 24.9701 38.8411 24.9701C38.9196 24.9701 40.3225 22.9179 40.3225 22.8067C40.3225 22.7056 41.804 20.5423 42.6575 19.3696C43.1284 18.7226 45.12 16.6704 45.5812 16.3368C47.0724 15.2855 47.5335 14.9923 48.181 14.6587C49.0149 14.224 50.4768 13.7084 51.3401 13.5568C51.6541 13.4961 51.9386 13.4355 51.9778 13.4051C52.0171 13.3849 52.8019 13.3344 53.7143 13.3041C56.7361 13.1827 58.3549 13.5062 60.5329 14.6385C61.769 15.2855 62.0339 15.4472 62.9856 16.1852C63.898 16.8928 64.9576 18.0352 65.5462 18.9551C65.6688 19.1523 65.8332 19.4075 65.9975 19.6628C66.1618 19.918 66.3262 20.1733 66.4488 20.3704C67.0375 21.3005 67.7635 22.0384 68.7445 22.7056C69.186 23.0089 69.5687 23.2515 69.5981 23.2515C69.7551 23.2515 71.1678 24.3636 71.7663 24.96C72.816 26.0013 73.7971 26.8909 73.8854 26.8909C74.1013 26.8909 74.0032 26.5472 72.9141 23.1505C71.2954 18.1059 70.6969 16.8827 68.8819 14.9316C67.1258 13.0513 65.4481 11.6664 63.8195 10.7565C61.7592 9.60408 60.1012 9.13905 57.5602 8.99752C55.9218 8.90654 53.7242 9.00763 53.3906 9.18959C53.3023 9.24014 53.1944 9.28057 53.1453 9.28057C52.7136 9.29068 51.4088 9.68495 49.6625 10.3522C49.0346 10.5948 47.2196 11.545 46.5524 11.9797C45.2476 12.839 43.6288 14.3554 42.2357 16.0234C40.872 17.6712 40.4501 18.2879 39.8222 19.5819C39.469 20.3199 39.2728 20.6231 39.1452 20.6231C38.8804 20.6231 38.2525 19.9155 37.8796 19.1977C36.6729 16.8524 34.7304 14.5374 32.2678 12.5054C31.2377 11.6664 29.4031 10.6049 28.2062 10.1601C27.9413 10.059 27.6764 9.94779 27.6175 9.90735ZM50.31 37.0102C51.4677 37.2326 52.5468 36.9698 53.4004 36.252C53.8124 35.9083 54.8524 34.675 54.9309 34.4425C54.9505 34.3717 55.078 34.1796 55.1958 34.0078C55.7942 33.199 56.5497 31.2277 57.0206 29.216C57.2953 28.0534 57.3149 25.7081 57.0598 24.4647C56.4418 21.4319 55.1762 19.5212 53.3906 18.9046C51.8993 18.389 50.0647 18.9854 48.701 20.4412C47.455 21.7655 46.6505 23.4942 46.0913 26.0316C45.797 27.3963 45.7676 30.4594 46.0423 31.6422C46.7977 34.8165 48.2006 36.5856 50.31 37.0102ZM64.5749 40.508C65.6541 40.0127 66.8216 39.0422 67.9891 37.6572C69.0389 36.4239 69.9218 34.766 70.5007 32.9564C70.9422 31.5816 71.0599 30.6414 71.0108 28.8824C70.9716 27.5985 70.9422 27.3862 70.7165 26.8808C70.3928 26.163 69.5785 25.3239 68.8721 24.9903C68.4012 24.7578 68.1853 24.7275 67.1061 24.7073C65.6247 24.6769 65.144 24.7578 64.0746 25.2835C61.1313 26.6988 58.5118 30.4493 57.727 34.3717C57.5209 35.3826 57.4719 37.8392 57.6485 38.2233C57.7172 38.3547 57.8251 38.6176 57.8938 38.8097C58.0115 39.1433 58.6688 40.0632 58.9533 40.3159C59.6793 40.9326 60.5427 41.246 61.4845 41.246C62.1418 41.246 63.4369 41.0236 63.8195 40.8517C63.9274 40.8012 64.2708 40.6394 64.5749 40.508ZM41.3429 29.6103C40.7542 29.0542 40.1263 28.66 39.4788 28.4578C38.8313 28.2556 37.1831 28.2758 36.5944 28.4982C35.5741 28.8723 34.8873 29.4081 34.2889 30.2775C33.6021 31.2682 33.3078 31.9758 32.7584 33.9168C32.7093 34.0886 32.6308 34.7862 32.572 35.4635C32.2286 39.4668 33.6217 43.1162 35.8684 44.1372C37.0359 44.673 38.8705 44.6831 39.9105 44.1777C41.3625 43.47 42.893 41.3471 43.4718 39.2545C43.7367 38.2638 43.8054 37.3337 43.668 36.2925C43.6493 36.1409 43.6255 35.9432 43.599 35.7224C43.5423 35.2509 43.4731 34.6745 43.413 34.2201C43.2658 33.0676 42.9911 31.8848 42.7458 31.4097C42.5104 30.9649 41.8138 30.0652 41.3429 29.6103ZM75.2099 43.0859C74.6409 42.0244 73.5617 41.3471 72.1783 41.155C70.8833 40.973 69.3724 41.0842 68.3619 41.4482C65.8111 42.358 63.6527 44.3192 62.5735 46.705C62.0536 47.8574 61.877 48.7673 61.8671 50.2938C61.8671 52.3662 62.2203 53.458 63.1033 54.0544C64.5651 55.035 64.5847 55.0451 66.3213 55.0451C68.0284 55.0451 68.4895 54.9339 69.9611 54.1757C72.198 53.0233 74.1111 50.8397 75.0333 48.373C75.4552 47.261 75.4944 46.988 75.4944 45.2897C75.4944 43.6318 75.4944 43.6217 75.2099 43.0859ZM58.3254 67.7625L58.8356 67.3379C60.3857 66.0743 60.9253 64.4265 60.9253 60.959C60.9253 59.2202 60.6702 56.4301 60.4446 55.6517C60.3955 55.4798 60.317 55.1462 60.2876 54.8935C60.2484 54.6407 60.1797 54.388 60.1404 54.3375C60.1012 54.2768 60.0325 54.0544 59.9933 53.832C59.9344 53.4478 59.6499 52.5582 58.816 50.041C57.57 46.2905 55.7158 44.0159 53.214 43.1667C52.6646 42.9848 52.282 42.9342 51.2126 42.9039C50.4866 42.8938 49.6232 42.914 49.2995 42.9545C47.0724 43.2476 44.4627 44.2889 41.7844 45.9468C40.6169 46.6747 38.38 48.4033 37.8993 48.9593C37.4578 49.4648 36.3295 50.6173 35.2994 51.6282C34.2398 52.6492 33.9455 53.3063 33.9455 54.6205C33.9455 56.2784 34.5145 57.6027 35.8096 58.9372C36.565 59.7156 37.2812 60.1907 38.4094 60.6355C38.9883 60.8579 39.4101 60.9186 41.4017 61.0096C44.4039 61.141 45.4536 61.5959 48.3184 63.9918C50.1066 65.4939 50.133 65.508 51.6592 66.3237L51.7031 66.3472C52.488 66.7516 53.3023 67.2166 53.5083 67.3582C53.8615 67.6109 53.9596 67.6311 54.9407 67.6311C55.5195 67.6311 56.5104 67.6614 57.1579 67.6918L58.3254 67.7625Z" fill="#080808"/>
</svg>
